<svg width="1327" height="935" viewBox="0 0 1327 935" fill="none" xmlns="http://www.w3.org/2000/svg">
<g id="Drums">
<g id="Group">
<path id="Drum-Shadow" opacity="0.1" d="M1327 763C1327 808.345 1029.98 845 663.5 845C297.124 845 0 808.245 0 763C0 717.656 297.018 681 663.5 681C1029.88 680.9 1327 717.656 1327 763Z" fill="#333333"/>
<g id="Snare">
<g id="Snare-Drum">
<path id="Vector" d="M1068.6 365.5H845.6V475.5H1068.6V365.5Z" fill="#013220" stroke="#333333" stroke-width="8" stroke-miterlimit="10" stroke-linecap="round" stroke-linejoin="round"/>
<path id="Vector_2" d="M1064.6 394.5H849.6" stroke="#E5E5E5" stroke-width="8" stroke-miterlimit="10"/>
<g id="Group_2">
<path id="Vector_3" d="M853.6 430.5C853.6 434.9 850 438.5 845.6 438.5C841.2 438.5 837.6 434.9 837.6 430.5V410.5C837.6 406.1 841.2 402.5 845.6 402.5C850 402.5 853.6 406.1 853.6 410.5V430.5Z" fill="#EEFAF9" stroke="#333333" stroke-width="6" stroke-miterlimit="10" stroke-linecap="round" stroke-linejoin="round"/>
<path id="Vector_4" d="M1076.6 430.5C1076.6 434.9 1073 438.5 1068.6 438.5C1064.2 438.5 1060.6 434.9 1060.6 430.5V410.5C1060.6 406.1 1064.2 402.5 1068.6 402.5C1073 402.5 1076.6 406.1 1076.6 410.5V430.5Z" fill="#EEFAF9" stroke="#333333" stroke-width="6" stroke-miterlimit="10" stroke-linecap="round" stroke-linejoin="round"/>
<g id="Group_3">
<path id="Vector_5" d="M919.6 451.5V438.5" stroke="#333333" stroke-width="8" stroke-miterlimit="10" stroke-linecap="round" stroke-linejoin="round"/>
<path id="Vector_6" d="M919.6 402.5V389.5" stroke="#333333" stroke-width="8" stroke-miterlimit="10" stroke-linecap="round" stroke-linejoin="round"/>
<path id="Vector_7" d="M927.6 430.5C927.6 434.9 924 438.5 919.6 438.5C915.2 438.5 911.6 434.9 911.6 430.5V410.5C911.6 406.1 915.2 402.5 919.6 402.5C924 402.5 927.6 406.1 927.6 410.5V430.5Z" fill="#EEFAF9" stroke="#333333" stroke-width="6" stroke-miterlimit="10" stroke-linecap="round" stroke-linejoin="round"/>
</g>
<g id="Group_4">
<path id="Vector_8" d="M994.6 451.5V438.5" stroke="#333333" stroke-width="8" stroke-miterlimit="10" stroke-linecap="round" stroke-linejoin="round"/>
<path id="Vector_9" d="M994.6 402.5V389.5" stroke="#333333" stroke-width="8" stroke-miterlimit="10" stroke-linecap="round" stroke-linejoin="round"/>
<path id="Vector_10" d="M1002.6 430.5C1002.6 434.9 999 438.5 994.6 438.5C990.2 438.5 986.6 434.9 986.6 430.5V410.5C986.6 406.1 990.2 402.5 994.6 402.5C999 402.5 1002.6 406.1 1002.6 410.5V430.5Z" fill="#EEFAF9" stroke="#333333" stroke-width="6" stroke-miterlimit="10" stroke-linecap="round" stroke-linejoin="round"/>
</g>
</g>
<path id="Vector_11" d="M1076.6 365.5H835.6V386.5H1076.6V365.5Z" fill="#EEFAF9" stroke="#333333" stroke-width="8" stroke-miterlimit="10" stroke-linecap="round" stroke-linejoin="round"/>
<path id="Vector_12" d="M1076.6 454.5H835.6V475.5H1076.6V454.5Z" fill="#EEFAF9" stroke="#333333" stroke-width="8" stroke-miterlimit="10" stroke-linecap="round" stroke-linejoin="round"/>
<path id="Vector_13" d="M839.6 380.5H1072.6" stroke="#BCECE8" stroke-width="4" stroke-miterlimit="10"/>
<path id="Vector_14" d="M839.6 469.5H1072.6" stroke="#BCECE8" stroke-width="4" stroke-miterlimit="10"/>
</g>
<g id="Snare-Stand">
<path id="Vector_15" d="M964.6 567.5H947.6V662.5H964.6V567.5Z" fill="#EEFAF9" stroke="#333333" stroke-width="6" stroke-miterlimit="10" stroke-linecap="round" stroke-linejoin="round"/>
<g id="Group_5">
<g id="Group_6">
<path id="Vector_16" d="M1030 736.5C1026.6 739.9 1021.2 739.8 1017.9 736.4L951.2 669.7C947.8 666.3 947.7 661 951.1 657.6C954.5 654.2 959.9 654.3 963.2 657.7L1029.9 724.4C1033.2 727.7 1033.3 733.1 1030 736.5Z" fill="#EEFAF9" stroke="#333333" stroke-width="6" stroke-miterlimit="10" stroke-linecap="round" stroke-linejoin="round"/>
<path id="Vector_17" d="M1022 733.3L954.8 666.1" stroke="#BCECE8" stroke-width="4" stroke-miterlimit="10"/>
<path id="Vector_18" d="M1030.4 724.9L1018.4 736.9C1018.4 736.9 1024.8 747.7 1026.4 749.3C1031.1 754 1038.3 753.6 1043 748.9C1047.7 744.2 1048.1 737 1043.5 732.3C1041.9 730.9 1030.4 724.9 1030.4 724.9Z" fill="#5C5C5C" stroke="#333333" stroke-width="6" stroke-miterlimit="10" stroke-linecap="round" stroke-linejoin="round"/>
</g>
<g id="Group_7">
<path id="Vector_19" d="M884.1 736.2C880.7 732.8 880.8 727.4 884.2 724.1L950.9 657.4C954.3 654 959.6 653.9 963 657.3C966.4 660.7 966.3 666.1 962.9 669.4L896.2 736.1C892.8 739.5 887.4 739.6 884.1 736.2Z" fill="#EEFAF9" stroke="#333333" stroke-width="6" stroke-miterlimit="10" stroke-linecap="round" stroke-linejoin="round"/>
<path id="Vector_20" d="M892.3 733.3L957.1 668.4" stroke="#BCECE8" stroke-width="4" stroke-miterlimit="10"/>
<path id="Vector_21" d="M895.6 736.6L883.6 724.6C883.6 724.6 872.8 731 871.2 732.6C866.5 737.3 866.9 744.5 871.6 749.2C876.3 753.9 883.5 754.3 888.2 749.7C889.6 748.2 895.6 736.6 895.6 736.6Z" fill="#5C5C5C" stroke="#333333" stroke-width="6" stroke-miterlimit="10" stroke-linecap="round" stroke-linejoin="round"/>
</g>
<g id="Group_8">
<path id="Vector_22" d="M943.7 663.3C943.7 655.8 949.7 649.8 957.2 649.8C964.7 649.8 970.7 655.8 970.7 663.3C970.7 670.8 964.7 676.8 957.2 676.8C949.7 676.8 943.7 670.7 943.7 663.3Z" fill="#EEFAF9" stroke="#333333" stroke-width="6" stroke-miterlimit="10" stroke-linecap="round" stroke-linejoin="round"/>
<path id="Vector_23" d="M959.6 660C957.8 658.7 955.3 659.1 954 660.9C952.7 662.7 953.1 665.2 954.9 666.5C956.7 667.8 959.2 667.4 960.5 665.6C961.8 663.8 961.4 661.3 959.6 660Z" fill="#333333"/>
</g>
</g>
<g id="Group_9">
<g id="Group_10">
<g id="Group_11">
<path id="Vector_24" d="M836.6 460.1C836.6 456.4 833.8 453.5 830.1 453.5C826.4 453.5 823.6 456.5 823.6 460.1V472.5H836.6V460.1Z" fill="#5C5C5C" stroke="#333333" stroke-width="6" stroke-miterlimit="10" stroke-linecap="round" stroke-linejoin="round"/>
<path id="Vector_25" d="M836.6 477.8V472.5H823.6V482.5C823.6 486.1 826.1 489.6 829.7 490L952 503.6L953.2 490.7L836.6 477.8Z" fill="#EEFAF9" stroke="#333333" stroke-width="6" stroke-miterlimit="10" stroke-linecap="round" stroke-linejoin="round"/>
<path id="Vector_26" d="M830.4 487.1L949.2 500.4L949.4 498.4L827.8 484.8C828.2 486 829.2 486.9 830.4 487.1Z" fill="#BCECE8"/>
</g>
<g id="Group_12">
<path id="Vector_27" d="M1088.6 472.5H1075.6V477.8L960.9 490.6L962.5 503.5L1083 490C1086.6 489.6 1088.5 486 1088.5 482.5V472.5H1088.6Z" fill="#EEFAF9" stroke="#333333" stroke-width="6" stroke-miterlimit="10" stroke-linecap="round" stroke-linejoin="round"/>
<path id="Vector_28" d="M965.1 498.2L965.3 500.2L1083.1 487.1C1084.2 487 1085 486.2 1085.6 485.2L965.1 498.2Z" fill="#BCECE8"/>
<path id="Vector_29" d="M1088.6 460.1C1088.6 456.4 1085.8 453.5 1082.1 453.5C1078.4 453.5 1075.6 456.5 1075.6 460.1V472.5H1088.6V460.1Z" fill="#5C5C5C" stroke="#333333" stroke-width="6" stroke-miterlimit="10" stroke-linecap="round" stroke-linejoin="round"/>
</g>
</g>
<g id="Group_13">
<g id="Group_14">
<path id="Vector_30" d="M963.436 497.554L950.436 497.48L950.007 572.48L963.007 572.554L963.436 497.554Z" fill="#EEFAF9" stroke="#333333" stroke-width="6" stroke-miterlimit="10" stroke-linecap="round" stroke-linejoin="round"/>
<path id="Vector_31" d="M957.2 505.8C961.894 505.8 965.7 501.994 965.7 497.3C965.7 492.606 961.894 488.8 957.2 488.8C952.506 488.8 948.7 492.606 948.7 497.3C948.7 501.994 952.506 505.8 957.2 505.8Z" fill="#EEFAF9" stroke="#333333" stroke-width="6" stroke-miterlimit="10" stroke-linecap="round" stroke-linejoin="round"/>
<path id="Vector_32" d="M957.2 499.3C958.305 499.3 959.2 498.405 959.2 497.3C959.2 496.195 958.305 495.3 957.2 495.3C956.095 495.3 955.2 496.195 955.2 497.3C955.2 498.405 956.095 499.3 957.2 499.3Z" fill="#333333"/>
</g>
<g id="Group_15">
<path id="Vector_33" d="M1045 485.1C1042.5 482.5 1038.4 482.5 1035.8 485L952 567.9L961.1 577.1L1044.9 494.2C1047.5 491.7 1047.5 487.6 1045 485.1Z" fill="#EEFAF9" stroke="#333333" stroke-width="6" stroke-miterlimit="10" stroke-linecap="round" stroke-linejoin="round"/>
<path id="Vector_34" d="M1035.5 497.5L970.8 561.5" stroke="#BCECE8" stroke-width="2" stroke-miterlimit="10"/>
<path id="Vector_35" d="M1041.2 496.8C1045.89 496.8 1049.7 492.994 1049.7 488.3C1049.7 483.606 1045.89 479.8 1041.2 479.8C1036.51 479.8 1032.7 483.606 1032.7 488.3C1032.7 492.994 1036.51 496.8 1041.2 496.8Z" fill="#EEFAF9" stroke="#333333" stroke-width="6" stroke-miterlimit="10" stroke-linecap="round" stroke-linejoin="round"/>
<path id="Vector_36" d="M1041.2 490.3C1042.3 490.3 1043.2 489.405 1043.2 488.3C1043.2 487.195 1042.3 486.3 1041.2 486.3C1040.1 486.3 1039.2 487.195 1039.2 488.3C1039.2 489.405 1040.1 490.3 1041.2 490.3Z" fill="#333333"/>
</g>
<g id="Group_16">
<path id="Vector_37" d="M870.3 484.1C867.7 486.6 867.7 490.7 870.2 493.3L953.1 577.1L962.3 568L879.4 484.2C877 481.6 872.9 481.6 870.3 484.1Z" fill="#EEFAF9" stroke="#333333" stroke-width="6" stroke-miterlimit="10" stroke-linecap="round" stroke-linejoin="round"/>
<path id="Vector_38" d="M874.4 491.5L943.7 561.5" stroke="#BCECE8" stroke-width="2" stroke-miterlimit="10"/>
<path id="Vector_39" d="M875.2 496.8C879.894 496.8 883.7 492.994 883.7 488.3C883.7 483.606 879.894 479.8 875.2 479.8C870.506 479.8 866.7 483.606 866.7 488.3C866.7 492.994 870.506 496.8 875.2 496.8Z" fill="#EEFAF9" stroke="#333333" stroke-width="6" stroke-miterlimit="10" stroke-linecap="round" stroke-linejoin="round"/>
<path id="Vector_40" d="M875.2 490.3C876.305 490.3 877.2 489.405 877.2 488.3C877.2 487.195 876.305 486.3 875.2 486.3C874.095 486.3 873.2 487.195 873.2 488.3C873.2 489.405 874.095 490.3 875.2 490.3Z" fill="#333333"/>
</g>
</g>
<path id="Vector_41" d="M974.6 569.6C974.6 574.5 970.6 578.5 965.7 578.5H947.5C942.6 578.5 938.6 574.5 938.6 569.6V565.4C938.6 560.5 942.6 556.5 947.5 556.5H965.7C970.6 556.5 974.6 560.5 974.6 565.4V569.6Z" fill="#EEFAF9" stroke="#333333" stroke-width="6" stroke-miterlimit="10" stroke-linecap="round" stroke-linejoin="round"/>
</g>
</g>
</g>
<g id="Floor-Tom">
<g id="Floor-Tom-Drum">
<path id="Vector_42" d="M454.6 358.5H167.6V678.5H454.6V358.5Z" fill="#013220" stroke="#333333" stroke-width="8" stroke-miterlimit="10" stroke-linecap="round" stroke-linejoin="round"/>
<path id="Vector_43" d="M450.6 387.5H171.6" stroke="#E5E5E5" stroke-width="8" stroke-miterlimit="10"/>
<g id="Group_17">
<g id="Group_18">
<path id="Vector_44" d="M175.6 420.5C175.6 424.9 172 428.5 167.6 428.5C163.2 428.5 159.6 424.9 159.6 420.5V400.5C159.6 396.1 163.2 392.5 167.6 392.5C172 392.5 175.6 396.1 175.6 400.5V420.5Z" fill="#EEFAF9" stroke="#333333" stroke-width="6" stroke-miterlimit="10" stroke-linecap="round" stroke-linejoin="round"/>
<path id="Vector_45" d="M462.6 420.5C462.6 424.9 459 428.5 454.6 428.5C450.2 428.5 446.6 424.9 446.6 420.5V400.5C446.6 396.1 450.2 392.5 454.6 392.5C459 392.5 462.6 396.1 462.6 400.5V420.5Z" fill="#EEFAF9" stroke="#333333" stroke-width="6" stroke-miterlimit="10" stroke-linecap="round" stroke-linejoin="round"/>
<g id="Group_19">
<path id="Vector_46" d="M263.6 392.5V379.5" stroke="#333333" stroke-width="8" stroke-miterlimit="10" stroke-linecap="round" stroke-linejoin="round"/>
<path id="Vector_47" d="M271.6 420.5C271.6 424.9 268 428.5 263.6 428.5C259.2 428.5 255.6 424.9 255.6 420.5V400.5C255.6 396.1 259.2 392.5 263.6 392.5C268 392.5 271.6 396.1 271.6 400.5V420.5Z" fill="#EEFAF9" stroke="#333333" stroke-width="6" stroke-miterlimit="10" stroke-linecap="round" stroke-linejoin="round"/>
</g>
<g id="Group_20">
<path id="Vector_48" d="M358.6 392.5V379.5" stroke="#333333" stroke-width="8" stroke-miterlimit="10" stroke-linecap="round" stroke-linejoin="round"/>
<path id="Vector_49" d="M366.6 420.5C366.6 424.9 363 428.5 358.6 428.5C354.2 428.5 350.6 424.9 350.6 420.5V400.5C350.6 396.1 354.2 392.5 358.6 392.5C363 392.5 366.6 396.1 366.6 400.5V420.5Z" fill="#EEFAF9" stroke="#333333" stroke-width="6" stroke-miterlimit="10" stroke-linecap="round" stroke-linejoin="round"/>
</g>
</g>
<path id="Vector_50" d="M462.6 358.5H158.6V379.5H462.6V358.5Z" fill="#EEFAF9" stroke="#333333" stroke-width="8" stroke-miterlimit="10" stroke-linecap="round" stroke-linejoin="round"/>
<path id="Vector_51" d="M162.6 373.5H458.6" stroke="#BCECE8" stroke-width="4" stroke-miterlimit="10"/>
</g>
<g id="Group_21">
<g id="Group_22">
<path id="Vector_52" d="M462.6 636.5C462.6 640.9 459 644.5 454.6 644.5C450.2 644.5 446.6 640.9 446.6 636.5V616.5C446.6 612.1 450.2 608.5 454.6 608.5C459 608.5 462.6 612.1 462.6 616.5V636.5Z" fill="#EEFAF9" stroke="#333333" stroke-width="6" stroke-miterlimit="10" stroke-linecap="round" stroke-linejoin="round"/>
<path id="Vector_53" d="M175.6 636.5C175.6 640.9 172 644.5 167.6 644.5C163.2 644.5 159.6 640.9 159.6 636.5V616.5C159.6 612.1 163.2 608.5 167.6 608.5C172 608.5 175.6 612.1 175.6 616.5V636.5Z" fill="#EEFAF9" stroke="#333333" stroke-width="6" stroke-miterlimit="10" stroke-linecap="round" stroke-linejoin="round"/>
<g id="Group_23">
<path id="Vector_54" d="M358.6 644.5V657.5" stroke="#333333" stroke-width="8" stroke-miterlimit="10" stroke-linecap="round" stroke-linejoin="round"/>
<path id="Vector_55" d="M366.6 636.5C366.6 640.9 363 644.5 358.6 644.5C354.2 644.5 350.6 640.9 350.6 636.5V616.5C350.6 612.1 354.2 608.5 358.6 608.5C363 608.5 366.6 612.1 366.6 616.5V636.5Z" fill="#EEFAF9" stroke="#333333" stroke-width="6" stroke-miterlimit="10" stroke-linecap="round" stroke-linejoin="round"/>
</g>
<g id="Group_24">
<path id="Vector_56" d="M263.6 644.5V657.5" stroke="#333333" stroke-width="8" stroke-miterlimit="10" stroke-linecap="round" stroke-linejoin="round"/>
<path id="Vector_57" d="M271.6 636.5C271.6 640.9 268 644.5 263.6 644.5C259.2 644.5 255.6 640.9 255.6 636.5V616.5C255.6 612.1 259.2 608.5 263.6 608.5C268 608.5 271.6 612.1 271.6 616.5V636.5Z" fill="#EEFAF9" stroke="#333333" stroke-width="6" stroke-miterlimit="10" stroke-linecap="round" stroke-linejoin="round"/>
</g>
</g>
<path id="Vector_58" d="M463.6 657.5H159.6V678.5H463.6V657.5Z" fill="#EEFAF9" stroke="#333333" stroke-width="8" stroke-miterlimit="10" stroke-linecap="round" stroke-linejoin="round"/>
<path id="Vector_59" d="M163.6 672.5H459.6" stroke="#BCECE8" stroke-width="4" stroke-miterlimit="10"/>
</g>
</g>
<g id="Floor-Tom-Legs">
<g id="Group_25">
<path id="Vector_60" d="M152.9 603.3L141.6 656V732.2C141.6 735.3 144 737.9 147.1 737.9C150.2 737.9 152.6 735.4 152.6 732.2V657.2L163.9 604.5L175.1 551.8L178.7 535.2L167.8 533L152.9 603.3Z" fill="#EEFAF9" stroke="#333333" stroke-width="6" stroke-miterlimit="10" stroke-linecap="round" stroke-linejoin="round"/>
<path id="Vector_61" d="M160.1 725.5L153.3 714.5H142.3L135.7 725.5C134.4 727.5 133.7 730.1 133.7 732.8C133.7 740.6 140 747 147.9 747C155.8 747 162.1 740.4 162.1 732.6C161.9 730.1 161.3 727.5 160.1 725.5Z" fill="#5C5C5C" stroke="#333333" stroke-width="6" stroke-miterlimit="10" stroke-linecap="round" stroke-linejoin="round"/>
<path id="Vector_62" d="M179.6 494.5C179.6 488.9 174.7 484.3 169.1 484.3C163.5 484.3 158.6 488.9 158.6 494.5V552.5H179.6V494.5Z" fill="#EEFAF9" stroke="#333333" stroke-width="6" stroke-miterlimit="10" stroke-linecap="round" stroke-linejoin="round"/>
</g>
<g id="Group_26">
<path id="Vector_63" d="M307.6 732.2C307.6 735.3 310 737.9 313.1 737.9C316.2 737.9 318.6 735.4 318.6 732.2V550.5H307.6V732.2Z" fill="#EEFAF9" stroke="#333333" stroke-width="6" stroke-miterlimit="10" stroke-linecap="round" stroke-linejoin="round"/>
<path id="Vector_64" d="M326.1 725.5L319.3 714.5H308.3L301.7 725.5C300.4 727.5 299.7 730.1 299.7 732.8C299.7 740.6 306 747 313.9 747C321.8 747 328.1 740.4 328.1 732.6C327.9 730.1 327.3 727.5 326.1 725.5Z" fill="#5C5C5C" stroke="#333333" stroke-width="6" stroke-miterlimit="10" stroke-linecap="round" stroke-linejoin="round"/>
<path id="Vector_65" d="M323.6 494.5C323.6 488.9 318.7 484.3 313.1 484.3C307.5 484.3 302.6 488.9 302.6 494.5V552.5H323.6V494.5Z" fill="#EEFAF9" stroke="#333333" stroke-width="6" stroke-miterlimit="10" stroke-linecap="round" stroke-linejoin="round"/>
</g>
<g id="Group_27">
<path id="Vector_66" d="M470.2 603.3L456 532.8L445.3 535L448.7 551.6L459.2 604.3L469.6 657V732C469.6 735.1 472 737.7 475.1 737.7C478.2 737.7 480.6 735.2 480.6 732V655.8L470.2 603.3Z" fill="#EEFAF9" stroke="#333333" stroke-width="6" stroke-miterlimit="10" stroke-linecap="round" stroke-linejoin="round"/>
<path id="Vector_67" d="M488.1 725.5L481.3 714.5H470.3L463.7 725.5C462.4 727.5 461.7 730.1 461.7 732.8C461.7 740.6 468 747 475.9 747C483.8 747 490.1 740.4 490.1 732.6C489.9 730.1 489.3 727.5 488.1 725.5Z" fill="#5C5C5C" stroke="#333333" stroke-width="6" stroke-miterlimit="10" stroke-linecap="round" stroke-linejoin="round"/>
<path id="Vector_68" d="M442.6 494.5C442.6 488.9 447.5 484.3 453.1 484.3C458.7 484.3 463.6 488.9 463.6 494.5V552.5H442.6V494.5Z" fill="#EEFAF9" stroke="#333333" stroke-width="6" stroke-miterlimit="10" stroke-linecap="round" stroke-linejoin="round"/>
</g>
</g>
</g>
<g id="Hi-Hat">
<g id="Hi-Hat-Stand-Top">
<path id="Vector_69" d="M1140 275.5V157.7C1140 154.6 1137.6 152 1134.5 152C1131.4 152 1129 154.5 1129 157.7V275.5H1140Z" fill="#EEFAF9" stroke="#333333" stroke-width="6" stroke-miterlimit="10" stroke-linecap="round" stroke-linejoin="round"/>
<path id="Vector_70" d="M1143 425.3C1143 429.9 1139.3 433.5 1134.8 433.5H1134.3C1129.7 433.5 1126.1 429.8 1126.1 425.3V187.7C1126.1 183.1 1129.8 179.5 1134.3 179.5H1134.8C1139.4 179.5 1143 183.2 1143 187.7V425.3Z" fill="#EEFAF9" stroke="#333333" stroke-width="6" stroke-miterlimit="10" stroke-linecap="round" stroke-linejoin="round"/>
<path id="Vector_71" d="M1140 226.5H1129V304.5H1140V226.5Z" fill="#BCECE8"/>
<path id="Vector_72" d="M1148.7 201.5C1148.7 200.5 1148 200.9 1148 200.8V200.3C1148 195.7 1145 192.5 1140.4 192.5H1129.9C1125.3 192.5 1121 195.7 1121 200.3V200.8C1121 200.9 1121.7 200.5 1121.7 201.5H1148.7Z" fill="#5C5C5C" stroke="#333333" stroke-width="6" stroke-miterlimit="10" stroke-linecap="round" stroke-linejoin="round"/>
<g id="Hi-Hat-Top">
<path id="Vector_73" d="M1225.8 216.2L1192.8 215.4C1169.8 214.9 1160 210.9 1153.3 206.4L1153.4 206.6C1149.9 203.8 1145.5 202.4 1140.7 202.4C1139.2 202.4 1134.8 202.4 1134.8 202.4C1134.8 202.4 1130.4 202.4 1128.9 202.4C1124.1 202.4 1119.6 203.8 1116.1 206.6V206.5C1109.5 211 1099.5 214.9 1076.5 215.4L1043 216.1C1039.3 216.1 1036 218.8 1036 222.5V222.6C1036 226.3 1039.6 229.3 1043.3 229.3H1134.7H1226.1C1229.8 229.3 1231.9 226.3 1231.9 222.6V222.5C1232 219 1229.5 216.2 1225.8 216.2Z" fill="#FDE74C" stroke="#333333" stroke-width="6" stroke-miterlimit="10" stroke-linecap="round" stroke-linejoin="round"/>
<path id="Vector_74" d="M1125 209.5H1143" stroke="#FEF5B7" stroke-width="4" stroke-miterlimit="10" stroke-linecap="round" stroke-linejoin="round"/>
</g>
</g>
<g id="Hi-Hat-Bottom">
<path id="Vector_75" d="M1043 244.8L1075.8 245.6C1098.8 246.1 1109 250.1 1115 254.6C1119 257.4 1124 259.5 1128.8 259.5C1130.3 259.5 1134.7 259.5 1134.7 259.5C1134.7 259.5 1139.1 259.5 1140.6 259.5C1145.4 259.5 1149.9 257.6 1153.4 254.8V254.7C1160 250.2 1170 246.2 1193 245.6L1225.8 244.8C1229.5 244.8 1232 242 1232 238.3V238.2C1232 234.5 1229.8 232.4 1226.2 232.4H1134.8H1043.4C1039.7 232.4 1036.1 234.5 1036.1 238.2V238.3C1036 242.1 1039.3 244.8 1043 244.8Z" fill="#FDE74C" stroke="#333333" stroke-width="6" stroke-miterlimit="10" stroke-linecap="round" stroke-linejoin="round"/>
<path id="Vector_76" opacity="0.3" d="M1125 252.5H1143" stroke="#BEAD39" stroke-width="4" stroke-miterlimit="10" stroke-linecap="round" stroke-linejoin="round"/>
</g>
<g id="Hi-Hat-Stand">
<path id="Vector_77" d="M1143 259.5H1126V626.5H1143V259.5Z" fill="#EEFAF9" stroke="#333333" stroke-width="6" stroke-miterlimit="10" stroke-linecap="round" stroke-linejoin="round"/>
<g id="Group_28">
<g id="Group_29">
<path id="Vector_78" d="M1207.8 698.5C1204.4 701.9 1199 701.8 1195.7 698.4L1129 631.7C1125.6 628.3 1125.5 623 1128.9 619.6C1132.3 616.2 1137.7 616.3 1141 619.7L1207.7 686.4C1211.1 689.7 1211.2 695.1 1207.8 698.5Z" fill="#EEFAF9" stroke="#333333" stroke-width="6" stroke-miterlimit="10" stroke-linecap="round" stroke-linejoin="round"/>
<path id="Vector_79" d="M1199.9 695.3L1132.7 628.1" stroke="#BCECE8" stroke-width="4" stroke-miterlimit="10"/>
<path id="Vector_80" d="M1208.2 686.9L1196.2 698.9C1196.2 698.9 1202.6 709.7 1204.2 711.3C1208.9 716 1216.1 715.6 1220.8 710.9C1225.5 706.2 1225.9 699 1221.3 694.3C1219.8 692.9 1208.2 686.9 1208.2 686.9Z" fill="#5C5C5C" stroke="#333333" stroke-width="6" stroke-miterlimit="10" stroke-linecap="round" stroke-linejoin="round"/>
</g>
<g id="Group_30">
<path id="Vector_81" d="M1062 698.2C1058.6 694.8 1058.7 689.4 1062.1 686.1L1128.8 619.4C1132.2 616 1137.5 615.9 1140.9 619.3C1144.3 622.7 1144.2 628.1 1140.8 631.4L1074.1 698.1C1070.7 701.5 1065.3 701.6 1062 698.2Z" fill="#EEFAF9" stroke="#333333" stroke-width="6" stroke-miterlimit="10" stroke-linecap="round" stroke-linejoin="round"/>
<path id="Vector_82" d="M1070.2 695.3L1135 630.4" stroke="#BCECE8" stroke-width="4" stroke-miterlimit="10"/>
<path id="Vector_83" d="M1073.5 698.6L1061.5 686.6C1061.5 686.6 1050.7 693 1049.1 694.6C1044.4 699.3 1044.8 706.5 1049.5 711.2C1054.2 715.9 1061.4 716.3 1066.1 711.7C1067.5 710.2 1073.5 698.6 1073.5 698.6Z" fill="#5C5C5C" stroke="#333333" stroke-width="6" stroke-miterlimit="10" stroke-linecap="round" stroke-linejoin="round"/>
</g>
<g id="Group_31">
<path id="Vector_84" d="M1121.6 625.3C1121.6 617.8 1127.6 611.8 1135.1 611.8C1142.6 611.8 1148.6 617.8 1148.6 625.3C1148.6 632.8 1142.6 638.8 1135.1 638.8C1127.6 638.8 1121.6 632.7 1121.6 625.3Z" fill="#EEFAF9" stroke="#333333" stroke-width="6" stroke-miterlimit="10" stroke-linecap="round" stroke-linejoin="round"/>
<path id="Vector_85" d="M1137.5 622C1135.7 620.7 1133.2 621.1 1131.9 622.9C1130.6 624.7 1131 627.2 1132.8 628.5C1134.6 629.8 1137.1 629.4 1138.4 627.6C1139.7 625.8 1139.3 623.3 1137.5 622Z" fill="#333333"/>
</g>
</g>
<g id="Group_32">
<path id="Vector_86" d="M1150.7 435C1156.22 435 1160.7 430.523 1160.7 425C1160.7 419.477 1156.22 415 1150.7 415C1145.18 415 1140.7 419.477 1140.7 425C1140.7 430.523 1145.18 435 1150.7 435Z" fill="#EEFAF9" stroke="#333333" stroke-width="6" stroke-miterlimit="10" stroke-linecap="round" stroke-linejoin="round"/>
<path id="Vector_87" d="M1148 436.6C1148 442.6 1143.1 447.5 1137.1 447.5H1132C1126 447.5 1121.1 442.6 1121.1 436.6V414.5C1121.1 408.5 1126 403.6 1132 403.6H1137.1C1143.1 403.6 1148 408.5 1148 414.5V436.6Z" fill="#EEFAF9" stroke="#333333" stroke-width="6" stroke-miterlimit="10" stroke-linecap="round" stroke-linejoin="round"/>
</g>
<path id="Vector_88" d="M1121.7 259.5C1121.7 259.5 1121 259.2 1121 259.3V259.8C1121 264.4 1125.4 268.5 1129.9 268.5H1140.4C1145 268.5 1148 264.3 1148 259.8V259.3C1148 259.2 1148.7 259.5 1148.7 259.5H1121.7Z" fill="#5C5C5C" stroke="#333333" stroke-width="6" stroke-miterlimit="10" stroke-linecap="round" stroke-linejoin="round"/>
</g>
</g>
<g id="Main-Kit">
<g id="Toms">
<g id="Tom-Rack">
<path id="Vector_89" d="M635.6 241.3C641.2 241.3 645.6 245.9 645.6 251.5V352.5C645.6 358.5 625.6 358.5 625.6 352.5V251.5C625.6 245.9 630 241.3 635.6 241.3Z" fill="#EEFAF9" stroke="#333333" stroke-width="6" stroke-miterlimit="10" stroke-linecap="round" stroke-linejoin="round"/>
<path id="Vector_90" d="M678.6 352.5V251.5C678.6 245.9 683 241.3 688.6 241.3C694.2 241.3 698.6 245.9 698.6 251.5V352.5C698.6 358.1 678.6 358.1 678.6 352.5Z" fill="#EEFAF9" stroke="#333333" stroke-width="6" stroke-miterlimit="10" stroke-linecap="round" stroke-linejoin="round"/>
<path id="Vector_91" d="M709.3 352.5C709.3 358.6 704.4 363.5 698.3 363.5H626.3C620.2 363.5 615.3 358.6 615.3 352.5C615.3 346.4 620.2 341.5 626.3 341.5H698.3C704.4 341.5 709.3 346.4 709.3 352.5Z" fill="#EEFAF9" stroke="#333333" stroke-width="6" stroke-miterlimit="10" stroke-linecap="round" stroke-linejoin="round"/>
</g>
<g id="Tom-Left-All">
<g id="Tom-Left-Drum">
<path id="Vector_92" d="M633.362 182.9L430.771 94.5961L357.25 263.27L559.842 351.574L633.362 182.9Z" fill="#013220" stroke="#333333" stroke-width="8" stroke-miterlimit="10" stroke-linecap="round" stroke-linejoin="round"/>
<path id="Vector_93" d="M422.85 122.779L618.108 207.886" stroke="#EEFAF9" stroke-width="8" stroke-miterlimit="10"/>
<g id="Group_33">
<g id="Group_34">
<path id="Vector_94" d="M413.214 152.395C411.455 156.429 406.717 158.291 402.683 156.532C398.65 154.774 396.788 150.036 398.546 146.002L406.538 127.668C408.296 123.635 413.034 121.773 417.068 123.531C421.101 125.289 422.963 130.028 421.205 134.061L413.214 152.395Z" fill="#F8FDFD" stroke="#333333" stroke-width="6" stroke-miterlimit="10" stroke-linecap="round" stroke-linejoin="round"/>
<path id="Vector_95" d="M616.722 241.099C614.964 245.133 610.225 246.994 606.192 245.236C602.158 243.478 600.296 238.74 602.055 234.706L610.046 216.372C611.804 212.338 616.543 210.477 620.576 212.235C624.61 213.993 626.471 218.732 624.713 222.765L616.722 241.099Z" fill="#F8FDFD" stroke="#333333" stroke-width="6" stroke-miterlimit="10" stroke-linecap="round" stroke-linejoin="round"/>
<g id="Group_35">
<path id="Vector_96" d="M484.904 153.099L490.098 141.182" stroke="#333333" stroke-width="8" stroke-miterlimit="10" stroke-linecap="round" stroke-linejoin="round"/>
<path id="Vector_97" d="M481.05 181.963C479.292 185.997 474.553 187.858 470.519 186.1C466.486 184.342 464.624 179.604 466.382 175.57L474.374 157.236C476.132 153.203 480.87 151.341 484.904 153.099C488.937 154.857 490.799 159.596 489.041 163.629L481.05 181.963Z" fill="#F8FDFD" stroke="#333333" stroke-width="6" stroke-miterlimit="10" stroke-linecap="round" stroke-linejoin="round"/>
</g>
<g id="Group_36">
<path id="Vector_98" d="M552.74 182.667L557.934 170.75" stroke="#333333" stroke-width="8" stroke-miterlimit="10" stroke-linecap="round" stroke-linejoin="round"/>
<path id="Vector_99" d="M548.886 211.531C547.128 215.565 542.389 217.426 538.356 215.668C534.322 213.91 532.46 209.172 534.218 205.138L542.21 186.804C543.968 182.771 548.706 180.909 552.74 182.667C556.773 184.425 558.635 189.164 556.877 193.197L548.886 211.531Z" fill="#F8FDFD" stroke="#333333" stroke-width="6" stroke-miterlimit="10" stroke-linecap="round" stroke-linejoin="round"/>
</g>
</g>
<path id="Vector_100" d="M640.696 186.097L422.52 91L414.129 110.251L632.305 205.348L640.696 186.097Z" fill="#F8FDFD" stroke="#333333" stroke-width="8" stroke-miterlimit="10" stroke-linecap="round" stroke-linejoin="round"/>
<path id="Vector_101" d="M631.036 198.249L420.194 106.349" stroke="#BCECE8" stroke-width="4" stroke-miterlimit="10"/>
</g>
<g id="Group_37">
<g id="Group_38">
<path id="Vector_102" d="M583.158 318.102C581.4 322.136 576.662 323.997 572.628 322.239C568.595 320.481 566.733 315.743 568.491 311.709L576.482 293.375C578.24 289.342 582.979 287.48 587.012 289.238C591.046 290.996 592.908 295.735 591.15 299.768L583.158 318.102Z" fill="#EEFAF9" stroke="#333333" stroke-width="6" stroke-miterlimit="10" stroke-linecap="round" stroke-linejoin="round"/>
<path id="Vector_103" d="M379.65 229.398C377.892 233.432 373.153 235.294 369.12 233.536C365.086 231.777 363.225 227.039 364.983 223.005L372.974 204.671C374.732 200.638 379.471 198.776 383.504 200.534C387.538 202.292 389.399 207.031 387.641 211.064L379.65 229.398Z" fill="#EEFAF9" stroke="#333333" stroke-width="6" stroke-miterlimit="10" stroke-linecap="round" stroke-linejoin="round"/>
<g id="Group_39">
<path id="Vector_104" d="M504.792 292.671L499.598 304.589" stroke="#333333" stroke-width="8" stroke-miterlimit="10" stroke-linecap="round" stroke-linejoin="round"/>
<path id="Vector_105" d="M515.322 288.534C513.564 292.568 508.825 294.43 504.792 292.671C500.758 290.913 498.897 286.175 500.655 282.141L508.646 263.807C510.404 259.774 515.143 257.912 519.176 259.67C523.21 261.428 525.072 266.167 523.313 270.2L515.322 288.534Z" fill="#EEFAF9" stroke="#333333" stroke-width="6" stroke-miterlimit="10" stroke-linecap="round" stroke-linejoin="round"/>
</g>
<g id="Group_40">
<path id="Vector_106" d="M436.956 263.103L431.762 275.021" stroke="#333333" stroke-width="8" stroke-miterlimit="10" stroke-linecap="round" stroke-linejoin="round"/>
<path id="Vector_107" d="M447.486 258.966C445.728 263 440.989 264.862 436.956 263.103C432.922 261.345 431.061 256.607 432.819 252.573L440.81 234.239C442.568 230.206 447.307 228.344 451.34 230.102C455.374 231.86 457.235 236.599 455.477 240.632L447.486 258.966Z" fill="#EEFAF9" stroke="#333333" stroke-width="6" stroke-miterlimit="10" stroke-linecap="round" stroke-linejoin="round"/>
</g>
</g>
<path id="Vector_108" d="M575.566 335.52L357.391 240.423L349 259.674L567.176 354.77L575.566 335.52Z" fill="#F8FDFD" stroke="#333333" stroke-width="8" stroke-miterlimit="10" stroke-linecap="round" stroke-linejoin="round"/>
<path id="Vector_109" d="M565.507 348.589L354.665 256.688" stroke="#BCECE8" stroke-width="4" stroke-miterlimit="10"/>
</g>
</g>
<g id="Group_41">
<path id="Vector_110" d="M582.226 256.404C580.256 262.071 574.019 265.09 568.352 263.12L563.534 261.446C557.867 259.476 554.847 253.238 556.818 247.571L564.074 226.696C566.044 221.029 572.281 218.01 577.949 219.98L582.766 221.654C588.433 223.624 591.453 229.862 589.483 235.529L582.226 256.404Z" fill="#EEFAF9" stroke="#333333" stroke-width="6" stroke-miterlimit="10" stroke-linecap="round" stroke-linejoin="round"/>
<path id="Vector_111" d="M583.2 256.5H564.3C565.7 258.9 568.2 260.5 571.2 260.5H576.3C579.3 260.5 581.9 258.9 583.2 256.5Z" fill="#BCECE8"/>
<path id="Vector_112" d="M581.8 251.5H635.6C641.6 251.5 646.3 247.1 646.3 241.5C646.3 235.9 642.2 231.5 636.6 231.5H636.7H581.7C576.1 231.5 571.5 235.9 571.5 241.5C571.6 247.1 576.1 251.5 581.8 251.5Z" fill="#EEFAF9" stroke="#333333" stroke-width="6" stroke-miterlimit="10" stroke-linecap="round" stroke-linejoin="round"/>
<path id="Vector_113" d="M643 244.5H575.2C576.3 246.9 578.8 248.5 581.7 248.5H636.1H636.2C639.4 248.5 641.9 246.9 643 244.5Z" fill="#BCECE8"/>
<path id="Vector_114" d="M636.7 254.6C644.045 254.6 650 248.645 650 241.3C650 233.955 644.045 228 636.7 228C629.355 228 623.4 233.955 623.4 241.3C623.4 248.645 629.355 254.6 636.7 254.6Z" fill="#EEFAF9" stroke="#333333" stroke-width="6" stroke-miterlimit="10" stroke-linecap="round" stroke-linejoin="round"/>
<path id="Vector_115" d="M639.1 238.1C637.3 236.8 634.8 237.2 633.5 239C632.2 240.8 632.6 243.3 634.4 244.6C636.2 245.9 638.7 245.5 640 243.7C641.3 241.9 640.9 239.4 639.1 238.1Z" fill="#333333"/>
</g>
</g>
<g id="Tom-Right-All">
<g id="Tom-Right-Drum">
<path id="Vector_116" d="M918.884 114.85L704.018 166.559L745.587 339.293L960.453 287.585L918.884 114.85Z" fill="#013220" stroke="#333333" stroke-width="8" stroke-miterlimit="10" stroke-linecap="round" stroke-linejoin="round"/>
<path id="Vector_117" d="M714.459 192.847L921.546 143.011" stroke="#EEFAF9" stroke-width="8" stroke-miterlimit="10"/>
<g id="Group_42">
<g id="Group_43">
<path id="Vector_118" d="M724.379 221.247C725.373 225.378 722.686 229.6 718.408 230.629C714.131 231.659 709.817 229.122 708.823 224.991L704.305 206.216C703.311 202.085 705.997 197.863 710.275 196.834C714.553 195.804 718.867 198.341 719.861 202.472L724.379 221.247Z" fill="#F8FDFD" stroke="#333333" stroke-width="6" stroke-miterlimit="10" stroke-linecap="round" stroke-linejoin="round"/>
<path id="Vector_119" d="M940.217 169.305C941.211 173.436 938.524 177.658 934.246 178.687C929.968 179.717 925.655 177.179 924.661 173.049L920.143 154.273C919.149 150.143 921.835 145.921 926.113 144.891C930.391 143.862 934.704 146.399 935.698 150.53L940.217 169.305Z" fill="#F8FDFD" stroke="#333333" stroke-width="6" stroke-miterlimit="10" stroke-linecap="round" stroke-linejoin="round"/>
<g id="Group_44">
<path id="Vector_120" d="M782.221 179.519L779.284 167.315" stroke="#333333" stroke-width="8" stroke-miterlimit="10" stroke-linecap="round" stroke-linejoin="round"/>
<path id="Vector_121" d="M796.325 203.933C797.319 208.064 794.632 212.286 790.354 213.315C786.076 214.345 781.763 211.807 780.769 207.677L776.251 188.901C775.257 184.771 777.943 180.549 782.221 179.519C786.499 178.49 790.812 181.027 791.807 185.158L796.325 203.933Z" fill="#F8FDFD" stroke="#333333" stroke-width="6" stroke-miterlimit="10" stroke-linecap="round" stroke-linejoin="round"/>
</g>
<g id="Group_45">
<path id="Vector_122" d="M854.167 162.205L851.23 150.001" stroke="#333333" stroke-width="8" stroke-miterlimit="10" stroke-linecap="round" stroke-linejoin="round"/>
<path id="Vector_123" d="M868.271 186.619C869.265 190.75 866.578 194.972 862.3 196.001C858.022 197.031 853.709 194.493 852.715 190.363L848.197 171.587C847.203 167.457 849.889 163.235 854.167 162.205C858.445 161.176 862.758 163.713 863.752 167.844L868.271 186.619Z" fill="#F8FDFD" stroke="#333333" stroke-width="6" stroke-miterlimit="10" stroke-linecap="round" stroke-linejoin="round"/>
</g>
</g>
<path id="Vector_124" d="M926.662 112.979L695.268 168.665L700.012 188.379L931.406 132.693L926.662 112.979Z" fill="#F8FDFD" stroke="#333333" stroke-width="8" stroke-miterlimit="10" stroke-linecap="round" stroke-linejoin="round"/>
<path id="Vector_125" d="M926.161 127.996L702.546 181.81" stroke="#BCECE8" stroke-width="4" stroke-miterlimit="10"/>
</g>
<g id="Group_46">
<g id="Group_47">
<path id="Vector_126" d="M959.194 248.162C960.188 252.293 957.501 256.515 953.224 257.544C948.946 258.574 944.632 256.036 943.638 251.906L939.12 233.13C938.126 229 940.813 224.778 945.09 223.748C949.368 222.719 953.682 225.256 954.676 229.387L959.194 248.162Z" fill="#EEFAF9" stroke="#333333" stroke-width="6" stroke-miterlimit="10" stroke-linecap="round" stroke-linejoin="round"/>
<path id="Vector_127" d="M743.356 300.104C744.35 304.235 741.664 308.457 737.386 309.486C733.108 310.516 728.794 307.979 727.8 303.848L723.282 285.073C722.288 280.942 724.975 276.72 729.253 275.691C733.53 274.661 737.844 277.198 738.838 281.329L743.356 300.104Z" fill="#EEFAF9" stroke="#333333" stroke-width="6" stroke-miterlimit="10" stroke-linecap="round" stroke-linejoin="round"/>
<g id="Group_48">
<path id="Vector_128" d="M881.278 274.858L884.215 287.062" stroke="#333333" stroke-width="8" stroke-miterlimit="10" stroke-linecap="round" stroke-linejoin="round"/>
<path id="Vector_129" d="M887.248 265.476C888.242 269.607 885.555 273.829 881.278 274.858C877 275.888 872.686 273.35 871.692 269.22L867.174 250.444C866.18 246.314 868.867 242.092 873.144 241.062C877.422 240.033 881.736 242.57 882.73 246.701L887.248 265.476Z" fill="#EEFAF9" stroke="#333333" stroke-width="6" stroke-miterlimit="10" stroke-linecap="round" stroke-linejoin="round"/>
</g>
<g id="Group_49">
<path id="Vector_130" d="M809.332 292.172L812.269 304.376" stroke="#333333" stroke-width="8" stroke-miterlimit="10" stroke-linecap="round" stroke-linejoin="round"/>
<path id="Vector_131" d="M815.302 282.79C816.296 286.921 813.61 291.143 809.332 292.172C805.054 293.202 800.74 290.665 799.746 286.534L795.228 267.758C794.234 263.628 796.921 259.406 801.199 258.376C805.476 257.347 809.79 259.884 810.784 264.015L815.302 282.79Z" fill="#EEFAF9" stroke="#333333" stroke-width="6" stroke-miterlimit="10" stroke-linecap="round" stroke-linejoin="round"/>
</g>
</g>
<path id="Vector_132" d="M963.487 265.999L732.093 321.685L736.837 341.399L968.231 285.713L963.487 265.999Z" fill="#F8FDFD" stroke="#333333" stroke-width="8" stroke-miterlimit="10" stroke-linecap="round" stroke-linejoin="round"/>
<path id="Vector_133" d="M963.212 281.955L739.597 335.769" stroke="#BCECE8" stroke-width="4" stroke-miterlimit="10"/>
</g>
</g>
<g id="Group_50">
<path id="Vector_134" d="M761.252 236.612C759.291 230.941 753.059 227.911 747.389 229.871L742.568 231.538C736.898 233.498 733.868 239.73 735.828 245.401L743.048 266.288C745.009 271.959 751.241 274.989 756.911 273.029L761.732 271.362C767.402 269.402 770.432 263.17 768.472 257.499L761.252 236.612Z" fill="#EEFAF9" stroke="#333333" stroke-width="6" stroke-miterlimit="10" stroke-linecap="round" stroke-linejoin="round"/>
<path id="Vector_135" d="M743.1 266.5H762C760.6 268.9 758.1 270.5 755.1 270.5H750C747.1 270.5 744.5 268.9 743.1 266.5Z" fill="#BCECE8"/>
<path id="Vector_136" d="M744.6 261.5H689.6C683.6 261.5 679.4 257.1 679.4 251.5C679.4 245.9 684 241.5 689.7 241.5H689.6H744.6C750.2 241.5 754.8 245.9 754.8 251.5C754.8 257.1 750.2 261.5 744.6 261.5Z" fill="#EEFAF9" stroke="#333333" stroke-width="6" stroke-miterlimit="10" stroke-linecap="round" stroke-linejoin="round"/>
<path id="Vector_137" d="M683.3 254.5H751.1C750 256.9 747.5 258.5 744.6 258.5H690.2H690.1C686.9 258.5 684.5 256.9 683.3 254.5Z" fill="#BCECE8"/>
<path id="Vector_138" d="M689.6 264.6C696.945 264.6 702.9 258.645 702.9 251.3C702.9 243.955 696.945 238 689.6 238C682.255 238 676.3 243.955 676.3 251.3C676.3 258.645 682.255 264.6 689.6 264.6Z" fill="#EEFAF9" stroke="#333333" stroke-width="6" stroke-miterlimit="10" stroke-linecap="round" stroke-linejoin="round"/>
<path id="Vector_139" d="M687.3 248.1C689.1 246.8 691.6 247.2 692.9 249C694.2 250.8 693.8 253.3 692 254.6C690.2 255.9 687.7 255.5 686.4 253.7C685.1 251.9 685.5 249.4 687.3 248.1Z" fill="#333333"/>
</g>
</g>
</g>
<g id="Kick">
<g id="Kick-Stand">
<g id="Group_51">
<path id="Vector_140" d="M441.9 530.8C442.2 525.2 447.2 520.8 452.9 521.1C458.5 521.4 463.2 526.1 462.9 531.8L460.2 589.8L439.2 588.8L441.9 530.8Z" fill="#EEFAF9" stroke="#333333" stroke-width="6" stroke-miterlimit="10" stroke-linecap="round" stroke-linejoin="round"/>
<path id="Vector_141" d="M455.2 589.6L447.5 757C447.4 760.1 444.9 762.5 441.7 762.4C438.6 762.3 436.3 759.6 436.5 756.5L444.2 589.1L455.2 589.6Z" fill="#EEFAF9" stroke="#333333" stroke-width="6" stroke-miterlimit="10" stroke-linecap="round" stroke-linejoin="round"/>
<path id="Vector_142" d="M430 749.5L437.3 738.9L448.3 739.3L454.4 750.5C455.6 753.5 456.2 755.3 456.1 758C455.7 765.8 449.1 771.9 441.3 771.5C433.5 771.1 427.5 764.3 427.8 756.5C428 754 428.7 751.5 430 749.5Z" fill="#5C5C5C" stroke="#333333" stroke-width="6" stroke-miterlimit="10" stroke-linecap="round" stroke-linejoin="round"/>
</g>
<g id="Group_52">
<path id="Vector_143" d="M882.8 530.8C882.5 525.2 877.5 520.8 871.8 521.1C866.2 521.4 861.5 526.1 861.8 531.8L864.5 589.8L885.5 588.8L882.8 530.8Z" fill="#EEFAF9" stroke="#333333" stroke-width="6" stroke-miterlimit="10" stroke-linecap="round" stroke-linejoin="round"/>
<path id="Vector_144" d="M869.5 589.6L877.2 757C877.3 760.1 879.8 762.5 883 762.4C886.1 762.3 888.4 759.6 888.2 756.5L880.5 589.1L869.5 589.6Z" fill="#EEFAF9" stroke="#333333" stroke-width="6" stroke-miterlimit="10" stroke-linecap="round" stroke-linejoin="round"/>
<path id="Vector_145" d="M894.7 749.5L887.4 738.9L876.4 739.3L870.3 750.5C869.1 753.5 868.5 755.3 868.6 758C869 765.8 875.6 771.9 883.4 771.5C891.2 771.1 897.2 764.3 896.9 756.5C896.7 754 895.9 751.5 894.7 749.5Z" fill="#5C5C5C" stroke="#333333" stroke-width="6" stroke-miterlimit="10" stroke-linecap="round" stroke-linejoin="round"/>
</g>
</g>
<g id="Kick-Drum">
<path id="Vector_146" d="M662.3 775.5C778.28 775.5 872.3 681.48 872.3 565.5C872.3 449.52 778.28 355.5 662.3 355.5C546.32 355.5 452.3 449.52 452.3 565.5C452.3 681.48 546.32 775.5 662.3 775.5Z" fill="#013220" stroke="#333333" stroke-width="8" stroke-miterlimit="10" stroke-linecap="round" stroke-linejoin="round"/>
<path id="Inner-Drum" d="M662.3 758.1C768.67 758.1 854.9 671.87 854.9 565.5C854.9 459.13 768.67 372.9 662.3 372.9C555.93 372.9 469.7 459.13 469.7 565.5C469.7 671.87 555.93 758.1 662.3 758.1Z" fill="#FDFFFC" stroke="#333333" stroke-width="8" stroke-miterlimit="10" stroke-linecap="round" stroke-linejoin="round"/>
<g id="Group_53">
<g id="Group_54">
<g id="Group_55">
<path id="Vector_147" d="M447.6 555.2C441.6 555.2 437.1 559.9 437.1 565.7C437.1 571.5 441.6 576.2 447.6 576.2V585.5H467.6V545.5H447.6V555.2Z" fill="#EEFAF9" stroke="#333333" stroke-width="8" stroke-miterlimit="10" stroke-linecap="round" stroke-linejoin="round"/>
<path id="Vector_148" d="M446.5 565.8C446.5 566.9 447.4 567.8 448.5 567.8C449.6 567.8 450.5 566.9 450.5 565.8C450.5 564.7 449.6 563.8 448.5 563.8C447.4 563.8 446.5 564.7 446.5 565.8Z" fill="#333333"/>
</g>
<path id="Vector_149" d="M461.6 581.5V549.5" stroke="#BCECE8" stroke-width="4" stroke-miterlimit="10"/>
</g>
<g id="Group_56">
<g id="Group_57">
<path id="Vector_150" d="M546.4 745.6C543.4 750.8 545.2 757 550.2 759.9C555.2 762.8 561.5 761.3 564.5 756.1L572.6 760.8L582.6 743.5L548 723.5L538 740.8L546.4 745.6Z" fill="#EEFAF9" stroke="#333333" stroke-width="8" stroke-miterlimit="10" stroke-linecap="round" stroke-linejoin="round"/>
<path id="Vector_151" d="M554.7 752.5C555.7 753 556.9 752.7 557.4 751.8C558 750.8 557.6 749.6 556.7 749.1C555.7 748.5 554.5 748.9 554 749.8C553.4 750.8 553.7 752 554.7 752.5Z" fill="#333333"/>
</g>
<path id="Vector_152" d="M576.3 746.7L548.6 730.7" stroke="#BCECE8" stroke-width="4" stroke-miterlimit="10"/>
</g>
<g id="Group_58">
<g id="Group_59">
<path id="Vector_153" d="M760.4 756C763.4 761.2 769.7 762.7 774.7 759.8C779.7 756.9 781.5 750.7 778.5 745.5L786.5 740.9L776.5 723.6L741.9 743.6L751.9 760.9L760.4 756Z" fill="#EEFAF9" stroke="#333333" stroke-width="8" stroke-miterlimit="10" stroke-linecap="round" stroke-linejoin="round"/>
<path id="Vector_154" d="M770.5 752.2C771.5 751.6 771.8 750.4 771.2 749.5C770.6 748.5 769.4 748.2 768.5 748.8C767.5 749.4 767.2 750.6 767.8 751.5C768.4 752.4 769.6 752.8 770.5 752.2Z" fill="#333333"/>
</g>
<path id="Vector_155" d="M776.2 730.7L748.4 746.7" stroke="#BCECE8" stroke-width="4" stroke-miterlimit="10"/>
</g>
<g id="Group_60">
<g id="Group_61">
<path id="Vector_156" d="M875.6 575.8C881.6 575.8 886.1 571.1 886.1 565.3C886.1 559.5 881.6 554.8 875.6 554.8V545.5H855.6V585.5H875.6V575.8Z" fill="#EEFAF9" stroke="#333333" stroke-width="8" stroke-miterlimit="10" stroke-linecap="round" stroke-linejoin="round"/>
<path id="Vector_157" d="M878.2 565.1C878.2 564 877.3 563.1 876.2 563.1C875.1 563.1 874.2 564 874.2 565.1C874.2 566.2 875.1 567.1 876.2 567.1C877.3 567.1 878.2 566.2 878.2 565.1Z" fill="#333333"/>
</g>
<path id="Vector_158" d="M861.6 549.5V581.5" stroke="#BCECE8" stroke-width="4" stroke-miterlimit="10"/>
</g>
<g id="Group_62">
<g id="Group_63">
<path id="Vector_159" d="M778.3 385.2C781.3 380 779.5 373.8 774.5 370.9C769.5 368 763.2 369.5 760.2 374.7L752.2 370.1L742.2 387.4L776.8 407.4L786.8 390.1L778.3 385.2Z" fill="#EEFAF9" stroke="#333333" stroke-width="8" stroke-miterlimit="10" stroke-linecap="round" stroke-linejoin="round"/>
<path id="Vector_160" d="M770 378.4C769 377.9 767.8 378.2 767.3 379.1C766.7 380.1 767.1 381.3 768 381.8C769 382.4 770.2 382 770.7 381.1C771.3 380.2 770.9 378.9 770 378.4Z" fill="#333333"/>
</g>
<path id="Vector_161" d="M748.6 384.3L776.3 400.3" stroke="#BCECE8" stroke-width="4" stroke-miterlimit="10"/>
</g>
<g id="Group_64">
<g id="Group_65">
<path id="Vector_162" d="M564.3 375C561.3 369.8 555 368.3 550 371.2C545 374.1 543.2 380.3 546.2 385.5L538.1 390.2L548.1 407.5L582.7 387.5L572.7 370.2L564.3 375Z" fill="#EEFAF9" stroke="#333333" stroke-width="8" stroke-miterlimit="10" stroke-linecap="round" stroke-linejoin="round"/>
<path id="Vector_163" d="M554.1 378.7C553.2 379.3 552.8 380.5 553.4 381.4C554 382.4 555.2 382.7 556.1 382.1C557.1 381.5 557.4 380.3 556.8 379.4C556.3 378.5 555.1 378.1 554.1 378.7Z" fill="#333333"/>
</g>
<path id="Vector_164" d="M548.4 400.3L576.2 384.3" stroke="#BCECE8" stroke-width="4" stroke-miterlimit="10"/>
</g>
</g>
</g>
</g>
</g>
<g id="Crash">
<g id="Crash-Stand-Top">
<path id="Vector_165" d="M184.6 129.8L204.9 74C206 71.1 204.6 67.9 201.7 66.8C198.8 65.7 195.7 67.3 194.6 70.2L174.3 126L184.6 129.8Z" fill="#EEFAF9" stroke="#333333" stroke-width="6" stroke-miterlimit="10" stroke-linecap="round" stroke-linejoin="round"/>
<path id="Vector_166" d="M202 90.7C203.6 86.4 201.4 81.7 197.1 80.1L196.6 79.9001C192.3 78.3001 187.6 80.5 186 84.8L120.8 264.1L136.8 269.9L202 90.7Z" fill="#EEFAF9" stroke="#333333" stroke-width="6" stroke-miterlimit="10" stroke-linecap="round" stroke-linejoin="round"/>
<path id="Vector_167" d="M165.7 126.2C165.7 126.3 165.6 126.4 165.6 126.4L165.4 126.9C163.8 131.2 166.1 135.9 170.3 137.5L180.2 141.1C184.5 142.7 189.2 140.4 190.8 136.2L191 135.7C191 135.6 191 135.5 191.1 135.5L165.7 126.2Z" fill="#5C5C5C" stroke="#333333" stroke-width="6" stroke-miterlimit="10" stroke-linecap="round" stroke-linejoin="round"/>
<path id="Vector_168" d="M202.3 104.4C202.3 104.3 202.4 104.2 202.4 104.2L202.6 103.7C204.2 99.4 202 94.7 197.7 93.1L187.8 89.5C183.5 87.9 178.8 90.1 177.2 94.4L177 94.9C177 95 177 95.1 176.9 95.1L202.3 104.4Z" fill="#5C5C5C" stroke="#333333" stroke-width="6" stroke-miterlimit="10" stroke-linecap="round" stroke-linejoin="round"/>
<g id="Crash-Cymbol">
<path id="Vector_169" d="M318.5 165.1L269.8 146.4C235.9 133.4 222.9 123.6 215 114.9C211.7 111.5 205.2 105.4 198.1 102.8C195.9 102 189.4 99.6 189.4 99.6C189.4 99.6 189.4 99.6 189.3 99.6C189.2 99.6 189.2 99.6 189.2 99.6C189.2 99.6 182.6 97.2 180.5 96.4C173.4 93.8 164.4 94.3 159.8 94.8C148.1 96.3 131.8 95.5 97.5 83.7L48.2 66.7C42.8 64.7 37.6 66.4 36.1 70.6L36 70.7C34.5 74.9 37.1 79.3 42.6 81.3L178 130.6H178.1H178.2L313.6 179.9C319 181.9 323.9 180.2 325.5 176L325.6 175.9C326.8 171.7 323.9 167.1 318.5 165.1Z" fill="#FDE74C" stroke="#333333" stroke-width="6" stroke-miterlimit="10" stroke-linecap="round" stroke-linejoin="round"/>
<path id="Vector_170" d="M198.9 110.6L173.2 101.3" stroke="#FEF5B7" stroke-width="4" stroke-miterlimit="10" stroke-linecap="round" stroke-linejoin="round"/>
</g>
</g>
<g id="Crash-Stand">
<path id="Vector_171" d="M136.6 267.5H119.6V676.5H136.6V267.5Z" fill="#EEFAF9" stroke="#333333" stroke-width="6" stroke-miterlimit="10" stroke-linecap="round" stroke-linejoin="round"/>
<g id="Group_66">
<g id="Group_67">
<path id="Vector_172" d="M201.4 749.5C198 752.9 192.6 752.8 189.3 749.4L122.6 682.7C119.2 679.3 119.1 674 122.5 670.6C125.9 667.2 131.3 667.3 134.6 670.7L201.3 737.4C204.7 740.7 204.8 746.1 201.4 749.5Z" fill="#EEFAF9" stroke="#333333" stroke-width="6" stroke-miterlimit="10" stroke-linecap="round" stroke-linejoin="round"/>
<path id="Vector_173" d="M193.5 746.3L126.3 679.1" stroke="#BCECE8" stroke-width="4" stroke-miterlimit="10"/>
<path id="Vector_174" d="M201.8 737.9L189.8 749.9C189.8 749.9 196.2 760.7 197.8 762.3C202.5 767 209.7 766.6 214.4 761.9C219.1 757.2 219.5 750 214.9 745.3C213.4 743.9 201.8 737.9 201.8 737.9Z" fill="#5C5C5C" stroke="#333333" stroke-width="6" stroke-miterlimit="10" stroke-linecap="round" stroke-linejoin="round"/>
</g>
<g id="Group_68">
<path id="Vector_175" d="M55.6 749.2C52.2 745.8 52.3 740.4 55.7 737.1L122.4 670.4C125.8 667 131.1 666.9 134.5 670.3C137.9 673.7 137.8 679.1 134.4 682.4L67.7 749.1C64.3 752.5 58.9 752.6 55.6 749.2Z" fill="#EEFAF9" stroke="#333333" stroke-width="6" stroke-miterlimit="10" stroke-linecap="round" stroke-linejoin="round"/>
<path id="Vector_176" d="M63.8 746.3L128.6 681.4" stroke="#BCECE8" stroke-width="4" stroke-miterlimit="10"/>
<path id="Vector_177" d="M67.1 749.6L55.1 737.6C55.1 737.6 44.3 744 42.7 745.6C38 750.3 38.4 757.5 43.1 762.2C47.8 766.9 55 767.3 59.7 762.7C61.1 761.2 67.1 749.6 67.1 749.6Z" fill="#5C5C5C" stroke="#333333" stroke-width="6" stroke-miterlimit="10" stroke-linecap="round" stroke-linejoin="round"/>
</g>
<g id="Group_69">
<path id="Vector_178" d="M115.2 676.3C115.2 668.8 121.2 662.8 128.7 662.8C136.2 662.8 142.2 668.8 142.2 676.3C142.2 683.8 136.2 689.8 128.7 689.8C121.2 689.8 115.2 683.7 115.2 676.3Z" fill="#EEFAF9" stroke="#333333" stroke-width="6" stroke-miterlimit="10" stroke-linecap="round" stroke-linejoin="round"/>
<path id="Vector_179" d="M131.1 673C129.3 671.7 126.8 672.1 125.5 673.9C124.2 675.7 124.6 678.2 126.4 679.5C128.2 680.8 130.7 680.4 132 678.6C133.3 676.8 132.9 674.3 131.1 673Z" fill="#333333"/>
</g>
</g>
<g id="Group_70">
<path id="Vector_180" d="M144.3 485C149.823 485 154.3 480.523 154.3 475C154.3 469.477 149.823 465 144.3 465C138.777 465 134.3 469.477 134.3 475C134.3 480.523 138.777 485 144.3 485Z" fill="#EEFAF9" stroke="#333333" stroke-width="6" stroke-miterlimit="10" stroke-linecap="round" stroke-linejoin="round"/>
<path id="Vector_181" d="M141.6 486.6C141.6 492.6 136.7 497.5 130.7 497.5H125.6C119.6 497.5 114.7 492.6 114.7 486.6V464.5C114.7 458.5 119.6 453.6 125.6 453.6H130.7C136.7 453.6 141.6 458.5 141.6 464.5V486.6Z" fill="#EEFAF9" stroke="#333333" stroke-width="6" stroke-miterlimit="10" stroke-linecap="round" stroke-linejoin="round"/>
</g>
<g id="Group_71">
<path id="Vector_182" d="M115 267.3C115 259.8 121 253.8 128.5 253.8C136 253.8 142 259.8 142 267.3C142 274.8 136 280.8 128.5 280.8C121 280.8 115 274.7 115 267.3Z" fill="#EEFAF9" stroke="#333333" stroke-width="6" stroke-miterlimit="10" stroke-linecap="round" stroke-linejoin="round"/>
<path id="Vector_183" d="M130.9 264C129.1 262.7 126.6 263.1 125.3 264.9C124 266.7 124.4 269.2 126.2 270.5C128 271.8 130.5 271.4 131.8 269.6C133.1 267.8 132.7 265.3 130.9 264Z" fill="#333333"/>
</g>
</g>
</g>
</g>
<g id="All-Keys" opacity="0.9">
<g id="Key-66" opacity="0.9">
<path id="Vector_184" opacity="0.9" d="M730.1 923C730.1 929.6 724.7 935 718.1 935H611.1C604.5 935 599.1 929.6 599.1 923V816C599.1 809.4 604.5 804 611.1 804H718.1C724.7 804 730.1 809.4 730.1 816V923Z" stroke="#FDFFFC" stroke-width="9" stroke-miterlimit="10"/>
<path id="B" opacity="0.9" d="M680.87 862.425C684.378 863.187 687.073 864.713 688.954 867C690.886 869.237 691.852 872.135 691.852 875.694C691.852 880.269 690.148 883.803 686.742 886.294C683.387 888.734 678.405 889.954 671.796 889.954H647.241V836.573H670.271C676.219 836.573 680.82 837.768 684.073 840.158C687.378 842.547 689.03 845.928 689.03 850.3C689.03 853.249 688.293 855.765 686.819 857.849C685.395 859.883 683.412 861.408 680.87 862.425ZM652.884 841.225V860.595H669.889C674.211 860.595 677.541 859.781 679.879 858.154C682.218 856.477 683.387 854.062 683.387 850.91C683.387 847.758 682.218 845.369 679.879 843.742C677.541 842.064 674.211 841.225 669.889 841.225H652.884ZM671.719 885.302C676.498 885.302 680.108 884.489 682.548 882.862C684.988 881.235 686.208 878.693 686.208 875.236C686.208 868.576 681.379 865.246 671.719 865.246H652.884V885.302H671.719Z" fill="#FDFFFC"/>
</g>
<g id="Key-74" opacity="0.9">
<path id="Vector_185" opacity="0.9" d="M1178.1 923C1178.1 929.6 1172.7 935 1166.1 935H1059.1C1052.5 935 1047.1 929.6 1047.1 923V816C1047.1 809.4 1052.5 804 1059.1 804H1166.1C1172.7 804 1178.1 809.4 1178.1 816V923Z" stroke="#FDFFFC" stroke-width="9" stroke-miterlimit="10"/>
<path id="J" opacity="0.9" d="M1107.37 890.412C1104.32 890.412 1101.5 889.751 1098.91 888.429C1096.31 887.107 1094.2 885.226 1092.58 882.786L1095.93 878.973C1098.88 883.345 1102.72 885.531 1107.45 885.531C1114.06 885.531 1117.36 881.616 1117.36 873.787V841.454H1097.84V836.573H1122.93V873.559C1122.93 879.151 1121.6 883.37 1118.96 886.217C1116.37 889.013 1112.5 890.412 1107.37 890.412Z" fill="#FDFFFC"/>
</g>
<g id="Key-72" opacity="0.9">
<path id="Vector_186" opacity="0.9" d="M1020.1 923C1020.1 929.6 1014.7 935 1008.1 935H901.1C894.5 935 889.1 929.6 889.1 923V816C889.1 809.4 894.5 804 901.1 804H1008.1C1014.7 804 1020.1 809.4 1020.1 816V923Z" stroke="#FDFFFC" stroke-width="9" stroke-miterlimit="10"/>
<path id="H" opacity="0.9" d="M979.978 836.573V889.954H974.412V865.323H941.011V889.954H935.368V836.573H941.011V860.366H974.412V836.573H979.978Z" fill="#FDFFFC"/>
</g>
<g id="Key-71" opacity="0.9">
<path id="Vector_187" opacity="0.9" d="M378.1 923C378.1 929.6 372.7 935 366.1 935H259.1C252.5 935 247.1 929.6 247.1 923V816C247.1 809.4 252.5 804 259.1 804H366.1C372.7 804 378.1 809.4 378.1 816V923Z" stroke="#FDFFFC" stroke-width="9" stroke-miterlimit="10"/>
<path id="D" opacity="0.9" d="M293.462 836.426H315.196C320.839 836.426 325.821 837.57 330.142 839.858C334.464 842.095 337.819 845.247 340.208 849.314C342.598 853.33 343.792 857.931 343.792 863.116C343.792 868.302 342.598 872.928 340.208 876.995C337.819 881.012 334.464 884.164 330.142 886.451C325.821 888.688 320.839 889.807 315.196 889.807H293.462V836.426ZM314.891 884.926C319.568 884.926 323.66 884.011 327.168 882.181C330.676 880.3 333.396 877.732 335.328 874.479C337.26 871.174 338.226 867.387 338.226 863.116C338.226 858.846 337.26 855.084 335.328 851.83C333.396 848.526 330.676 845.958 327.168 844.128C323.66 842.247 319.568 841.307 314.891 841.307H299.105V884.926H314.891Z" fill="#FDFFFC"/>
</g>
<g id="Key-70" opacity="0.9">
<path id="Vector_188" opacity="0.9" d="M191.1 923C191.1 929.6 185.7 935 179.1 935H72.1C65.5 935 60.1 929.6 60.1 923V816C60.1 809.4 65.5 804 72.1 804H179.1C185.7 804 191.1 809.4 191.1 816V923Z" stroke="#FDFFFC" stroke-width="9" stroke-miterlimit="10"/>
<path id="Q" opacity="0.9" d="M166.392 894.453C164.765 896.436 162.833 897.936 160.597 898.952C158.41 900.02 156.021 900.554 153.428 900.554C150.276 900.554 147.277 899.766 144.43 898.19C141.634 896.665 138.482 894.072 134.974 890.412C129.839 890.259 125.213 888.988 121.095 886.599C116.977 884.209 113.749 880.981 111.41 876.914C109.072 872.847 107.902 868.297 107.902 863.264C107.902 858.129 109.097 853.503 111.486 849.385C113.927 845.267 117.282 842.039 121.552 839.7C125.874 837.311 130.678 836.116 135.965 836.116C141.252 836.116 146.006 837.285 150.225 839.624C154.496 841.962 157.851 845.216 160.291 849.385C162.732 853.503 163.952 858.129 163.952 863.264C163.952 867.738 163.011 871.855 161.13 875.617C159.3 879.329 156.707 882.43 153.352 884.921C150.047 887.412 146.235 889.064 141.913 889.878C145.828 893.996 149.692 896.055 153.505 896.055C157.47 896.055 160.851 894.428 163.647 891.174L166.392 894.453ZM113.469 863.264C113.469 867.432 114.435 871.195 116.367 874.55C118.35 877.905 121.044 880.549 124.45 882.481C127.907 884.413 131.746 885.379 135.965 885.379C140.185 885.379 143.998 884.413 147.404 882.481C150.81 880.549 153.479 877.905 155.411 874.55C157.343 871.195 158.309 867.432 158.309 863.264C158.309 859.095 157.343 855.333 155.411 851.978C153.479 848.622 150.81 845.979 147.404 844.047C143.998 842.115 140.185 841.149 135.965 841.149C131.746 841.149 127.907 842.115 124.45 844.047C121.044 845.979 118.35 848.622 116.367 851.978C114.435 855.333 113.469 859.095 113.469 863.264Z" fill="#FDFFFC"/>
</g>
<g id="Key-89" opacity="0.9">
<path id="Vector_189" opacity="0.9" d="M905.1 119C905.1 125.6 899.7 131 893.1 131H786.1C779.5 131 774.1 125.6 774.1 119V12C774.1 5.4 779.5 0 786.1 0H893.1C899.7 0 905.1 5.4 905.1 12V119Z" stroke="#FDFFFC" stroke-width="9" stroke-miterlimit="10"/>
<path id="Y" opacity="0.9" d="M844.169 67.4996V85.954H838.603V67.4996L817.25 32.5734H823.275L841.577 62.5428L859.879 32.5734H865.522L844.169 67.4996Z" fill="#FDFFFC"/>
</g>
<g id="Key-84" opacity="0.9">
<path id="Vector_190" opacity="0.9" d="M555.1 119C555.1 125.6 549.7 131 543.1 131H436.1C429.5 131 424.1 125.6 424.1 119V12C424.1 5.4 429.5 0 436.1 0H543.1C549.7 0 555.1 5.4 555.1 12V119Z" stroke="#FDFFFC" stroke-width="9" stroke-miterlimit="10"/>
<path id="A" opacity="0.9" d="M510.108 71.6938H480.367L473.961 85.954H468.089L492.492 32.5734H498.059L522.461 85.954H516.513L510.108 71.6938ZM508.049 67.1183L495.237 38.4453L482.426 67.1183H508.049Z" fill="#FDFFFC"/>
</g>
</g>
</g>
</svg>
