<svg width="200" height="200" viewBox="0 0 200 200" fill="none" xmlns="http://www.w3.org/2000/svg">
<g id="Stars">
<rect width="200" height="200" fill="#FDFFEC"/>
<path id="Star1" d="M35 0L42.858 24.1844L68.287 24.1844L47.7145 39.1312L55.5725 63.3156L35 48.3688L14.4275 63.3156L22.2855 39.1312L1.71302 24.1844L27.142 24.1844L35 0Z" fill="#C4C4C4"/>
<path id="Star2" d="M65 70L72.858 94.1844L98.287 94.1844L77.7145 109.131L85.5725 133.316L65 118.369L44.4275 133.316L52.2855 109.131L31.713 94.1844L57.142 94.1844L65 70Z" fill="#C4C4C4"/>
<path id="Star3" d="M127 22L134.858 46.1844L160.287 46.1844L139.714 61.1312L147.572 85.3156L127 70.3688L106.428 85.3156L114.286 61.1312L93.713 46.1844L119.142 46.1844L127 22Z" fill="#C4C4C4"/>
<path id="Star4" d="M152 100L159.858 124.184L185.287 124.184L164.714 139.131L172.572 163.316L152 148.369L131.428 163.316L139.286 139.131L118.713 124.184L144.142 124.184L152 100Z" fill="#C4C4C4"/>
<path id="Star5" d="M165 0L172.858 24.1844L198.287 24.1844L177.714 39.1312L185.572 63.3156L165 48.3688L144.428 63.3156L152.286 39.1312L131.713 24.1844L157.142 24.1844L165 0Z" fill="#C4C4C4"/>
</g>
</svg>
